# xmcd
#
# Track frame offsets:
#	150
#	23078
#	42149
#	57983
#	71169
#	94843
#	133757
#	155741
#	180868
#	201366
#	220377
#
# Disc length: 3159 seconds
#
# Revision: 1
# Processed by: cddbd v1.5.2PL0 Copyright (c) Steve Scherf et al.
# Submitted via: audiograbber 1.83.01
#
DISCID=9f0c550b
DTITLE=Tony Lanier - Blues Groove
DYEAR=2006
DGENRE=Blues
TTITLE0=Say Baby
TTITLE1=Come To Memphis
TTITLE2=Baby I Got The Bluse
TTITLE3=You Gave Up On Me And Left Our Love For Dead
TTITLE4=In My Part - 2
TTITLE5=Monica
TTITLE6=I Miss You
TTITLE7=War Babies
TTITLE8=From Earth To Heaven (Instrumental)
TTITLE9=Come To Memphis
TTITLE10=Baby I Got The Blues
EXTD=Self Produced and Written\nTriple Dose, Inc.\n901-503 -4523
EXTT0=
EXTT1=
EXTT2=
EXTT3=
EXTT4=
EXTT5=
EXTT6=
EXTT7=
EXTT8=
EXTT9=
EXTT10=
PLAYORDER=
